<svg data-v-423bf9ae="" xmlns="http://www.w3.org/2000/svg" viewBox="0 0 256.0036422427731 60" class="font"><!----><!----><!----><g data-v-423bf9ae="" id="8d99789d-0f04-4cad-9299-d8896852358b" fill="#010033" transform="matrix(5.424954891204834,0,0,5.424954891204834,-1.5189772844314575,-15.189873695373535)"><path d="M0.28 3.71L0.28 3.71L0.28 3.71Q0.28 3.51 0.66 3.51L0.66 3.51L0.66 3.51Q0.74 3.51 1.20 3.54L1.20 3.54L1.20 3.54Q1.65 3.56 2.20 3.56L2.20 3.56L2.20 3.56Q2.59 3.56 2.98 3.54L2.98 3.54L2.98 3.54Q3.37 3.51 3.40 3.51L3.40 3.51L3.40 3.51Q3.53 3.51 3.56 3.55L3.56 3.55L3.56 3.55Q3.60 3.58 3.60 3.68L3.60 3.68L3.60 3.68Q3.60 3.77 3.30 3.92L3.30 3.92L3.30 3.92Q3.00 4.07 3.00 4.34L3.00 4.34L3.00 4.34Q3.00 4.47 3.05 4.65L3.05 4.65L3.05 4.65Q3.11 4.83 3.28 5.22L3.28 5.22L3.28 5.22Q3.44 5.61 3.63 6.03L3.63 6.03L3.63 6.03Q3.82 6.45 4.21 7.33L4.21 7.33L4.21 7.33Q4.61 8.20 4.98 9.07L4.98 9.07L4.98 9.07Q5.08 9.30 5.27 9.74L5.27 9.74L5.27 9.74Q5.46 10.18 5.58 10.46L5.58 10.46L5.58 10.46Q5.70 10.74 5.84 11.05L5.84 11.05L5.84 11.05Q5.98 11.37 6.07 11.52L6.07 11.52L6.07 11.52Q6.16 11.68 6.20 11.68L6.20 11.68L6.20 11.68Q6.26 11.68 6.65 10.81L6.65 10.81L6.65 10.81Q7.04 9.94 7.35 9.17L7.35 9.17L7.35 9.17Q7.41 9.04 7.48 8.89L7.48 8.89L7.48 8.89Q7.56 8.74 7.59 8.63L7.59 8.63L7.59 8.63Q7.63 8.53 7.63 8.41L7.63 8.41L7.63 8.41Q7.63 8.25 6.79 6.36L6.79 6.36L6.79 6.36Q5.95 4.48 5.71 4.21L5.71 4.21L5.71 4.21Q5.66 4.14 5.60 4.10L5.60 4.10L5.60 4.10Q5.54 4.06 5.50 4.02L5.50 4.02L5.50 4.02Q5.45 3.99 5.41 3.97L5.41 3.97L5.41 3.97Q5.38 3.95 5.32 3.94L5.32 3.94L5.32 3.94Q5.26 3.93 5.24 3.93L5.24 3.93L5.24 3.93Q5.22 3.93 5.16 3.93L5.16 3.93L5.16 3.93Q5.10 3.92 5.08 3.92L5.08 3.92L5.08 3.92Q4.69 3.88 4.61 3.84L4.61 3.84L4.61 3.84Q4.52 3.81 4.52 3.70L4.52 3.70L4.52 3.70Q4.52 3.50 4.93 3.50L4.93 3.50L4.93 3.50Q5.01 3.50 5.47 3.53L5.47 3.53L5.47 3.53Q5.94 3.56 6.47 3.56L6.47 3.56L6.47 3.56Q6.50 3.56 6.85 3.53L6.85 3.53L6.85 3.53Q7.20 3.50 7.39 3.50L7.39 3.50L7.39 3.50Q7.81 3.50 7.81 3.61L7.81 3.61L7.81 3.61Q7.81 3.70 7.66 3.78L7.66 3.78L7.66 3.78Q7.50 3.86 7.36 4.00L7.36 4.00L7.36 4.00Q7.21 4.13 7.21 4.33L7.21 4.33L7.21 4.33Q7.21 4.59 7.64 5.57L7.64 5.57L7.64 5.57Q7.67 5.63 7.83 6.03L7.83 6.03L7.83 6.03Q7.99 6.44 8.12 6.71L8.12 6.71L8.12 6.71Q8.25 6.99 8.30 6.99L8.30 6.99L8.30 6.99Q8.41 6.99 8.86 5.76L8.86 5.76L8.86 5.76Q9.31 4.54 9.31 4.31L9.31 4.31L9.31 4.31Q9.31 4.06 9.10 3.96L9.10 3.96L9.10 3.96Q8.89 3.85 8.68 3.80L8.68 3.80L8.68 3.80Q8.47 3.75 8.47 3.64L8.47 3.64L8.47 3.64Q8.47 3.49 8.78 3.49L8.78 3.49L8.78 3.49Q8.86 3.49 9.20 3.50L9.20 3.50L9.20 3.50Q9.53 3.51 9.67 3.51L9.67 3.51L9.91 3.51L9.91 3.51Q10.11 3.51 10.65 3.47L10.65 3.47L10.78 3.47L10.78 3.47Q10.96 3.47 10.96 3.61L10.96 3.61L10.96 3.61Q10.96 3.75 10.70 3.84L10.70 3.84L10.70 3.84Q10.43 3.92 10.33 4.02L10.33 4.02L10.33 4.02Q10.11 4.24 9.94 4.66L9.94 4.66L9.94 4.66Q9.65 5.38 9.24 6.33L9.24 6.33L9.24 6.33Q8.82 7.31 8.75 7.50L8.75 7.50L8.75 7.50Q8.68 7.70 8.68 7.85L8.68 7.85L8.68 7.85Q8.68 7.97 9.53 9.87L9.53 9.87L9.53 9.87Q10.39 11.77 10.54 11.77L10.54 11.77L10.54 11.77Q10.71 11.77 12.17 8.24L12.17 8.24L12.17 8.24Q13.64 4.70 13.64 4.35L13.64 4.35L13.64 4.35Q13.64 4.13 13.47 4.01L13.47 4.01L13.47 4.01Q13.31 3.89 13.12 3.87L13.12 3.87L13.12 3.87Q12.92 3.85 12.76 3.80L12.76 3.80L12.76 3.80Q12.60 3.75 12.60 3.64L12.60 3.64L12.60 3.64Q12.60 3.54 12.64 3.52L12.64 3.52L12.64 3.52Q12.68 3.50 12.87 3.50L12.87 3.50L12.87 3.50Q12.91 3.50 13.19 3.51L13.19 3.51L13.19 3.51Q13.47 3.51 13.75 3.51L13.75 3.51L13.75 3.51Q14 3.51 14.31 3.50L14.31 3.50L14.31 3.50Q14.63 3.49 14.99 3.49L14.99 3.49L14.99 3.49Q15.27 3.49 15.27 3.68L15.27 3.68L15.27 3.68Q15.27 3.78 15.20 3.84L15.20 3.84L15.20 3.84Q15.12 3.89 14.97 3.98L14.97 3.98L14.97 3.98Q14.81 4.06 14.70 4.17L14.70 4.17L14.70 4.17Q14.63 4.24 14.58 4.31L14.58 4.31L14.58 4.31Q14.53 4.38 14.48 4.49L14.48 4.49L14.48 4.49Q14.42 4.59 14.38 4.66L14.38 4.66L14.38 4.66Q14.35 4.73 14.27 4.91L14.27 4.91L14.27 4.91Q14.20 5.08 14.15 5.18L14.15 5.18L14.15 5.18Q13.08 7.59 11.75 10.58L11.75 10.58L11.75 10.58Q10.68 13.01 10.49 13.41L10.49 13.41L10.49 13.41Q10.29 13.82 10.18 13.82L10.18 13.82L10.18 13.82Q10.11 13.82 10.01 13.64L10.01 13.64L10.01 13.64Q9.91 13.47 9.74 13.05L9.74 13.05L9.74 13.05Q9.56 12.64 9.53 12.57L9.53 12.57L9.53 12.57Q9.39 12.26 9.16 11.72L9.16 11.72L9.16 11.72Q8.93 11.17 8.77 10.79L8.77 10.79L8.77 10.79Q8.61 10.42 8.44 10.02L8.44 10.02L8.44 10.02Q8.27 9.63 8.16 9.43L8.16 9.43L8.16 9.43Q8.05 9.23 8.01 9.23L8.01 9.23L8.01 9.23Q7.87 9.23 7.06 11.16L7.06 11.16L7.06 11.16Q6.26 13.09 6.20 13.31L6.20 13.31L6.20 13.31Q6.19 13.37 6.17 13.43L6.17 13.43L6.17 13.43Q6.15 13.48 6.13 13.52L6.13 13.52L6.13 13.52Q6.12 13.57 6.10 13.61L6.10 13.61L6.10 13.61Q6.09 13.65 6.08 13.68L6.08 13.68L6.08 13.68Q6.06 13.71 6.05 13.73L6.05 13.73L6.05 13.73Q6.05 13.76 6.03 13.78L6.03 13.78L6.03 13.78Q6.02 13.80 6.01 13.82L6.01 13.82L6.01 13.82Q5.99 13.83 5.98 13.84L5.98 13.84L5.98 13.84Q5.96 13.85 5.95 13.85L5.95 13.85L5.95 13.85Q5.94 13.86 5.91 13.86L5.91 13.86L5.91 13.86Q5.78 13.86 5.60 13.46L5.60 13.46L5.60 13.46Q5.42 13.06 4.94 11.89L4.94 11.89L4.94 11.89Q4.47 10.72 3.98 9.65L3.98 9.65L3.98 9.65Q3.16 7.87 2.25 5.63L2.25 5.63L2.25 5.63Q1.99 4.96 1.68 4.57L1.68 4.57L1.68 4.57Q1.37 4.19 1.13 4.09L1.13 4.09L1.13 4.09Q0.90 3.99 0.70 3.98L0.70 3.98L0.70 3.98Q0.50 3.96 0.39 3.92L0.39 3.92L0.39 3.92Q0.28 3.88 0.28 3.71ZM15.23 8.11L15.23 8.11L15.23 8.11Q15.23 8.04 15.27 7.99L15.27 7.99L15.27 7.99Q15.30 7.95 15.41 7.90L15.41 7.90L15.41 7.90Q15.51 7.85 15.62 7.82L15.62 7.82L15.62 7.82Q15.74 7.78 15.95 7.71L15.95 7.71L15.95 7.71Q16.17 7.63 16.37 7.55L16.37 7.55L16.37 7.55Q16.52 7.48 16.65 7.42L16.65 7.42L16.65 7.42Q16.79 7.36 16.83 7.34L16.83 7.34L16.83 7.34Q16.87 7.32 16.93 7.31L16.93 7.31L16.93 7.31Q16.98 7.29 17.07 7.29L17.07 7.29L17.07 7.29Q17.28 7.29 17.28 7.56L17.28 7.56L17.28 7.56Q17.28 7.63 17.23 7.87L17.23 7.87L17.23 7.87Q17.19 8.11 17.19 8.23L17.19 8.23L17.19 12.07L17.19 12.07Q17.19 12.49 17.33 12.73L17.33 12.73L17.33 12.73Q17.46 12.96 17.61 13.02L17.61 13.02L17.61 13.02Q17.75 13.08 17.98 13.09L17.98 13.09L17.98 13.09Q18.14 13.10 18.20 13.11L18.20 13.11L18.20 13.11Q18.26 13.12 18.33 13.16L18.33 13.16L18.33 13.16Q18.40 13.20 18.40 13.30L18.40 13.30L18.40 13.30Q18.40 13.54 18.16 13.54L18.16 13.54L18.16 13.54Q18.13 13.54 18.06 13.53L18.06 13.53L18.06 13.53Q17.99 13.52 17.95 13.52L17.95 13.52L17.95 13.52Q17.64 13.52 17.43 13.51L17.43 13.51L17.43 13.51Q17.22 13.50 16.95 13.50L16.95 13.50L16.95 13.50Q16.62 13.50 16.32 13.51L16.32 13.51L16.32 13.51Q16.03 13.52 15.96 13.52L15.96 13.52L15.96 13.52Q15.40 13.52 15.40 13.34L15.40 13.34L15.40 13.34Q15.40 13.15 15.61 13.08L15.61 13.08L15.61 13.08Q15.62 13.08 15.67 13.06L15.67 13.06L15.67 13.06Q15.99 12.95 16.06 12.78L16.06 12.78L16.06 12.78Q16.18 12.50 16.18 10.56L16.18 10.56L16.18 9.32L16.18 9.32Q16.18 8.92 16.09 8.68L16.09 8.68L16.09 8.68Q15.99 8.44 15.90 8.39L15.90 8.39L15.90 8.39Q15.82 8.33 15.62 8.29L15.62 8.29L15.62 8.29Q15.41 8.26 15.37 8.25L15.37 8.25L15.37 8.25Q15.23 8.19 15.23 8.11ZM16.03 5.18L16.03 5.18L16.03 5.18Q16.03 5.01 16.28 4.71L16.28 4.71L16.28 4.71Q16.52 4.41 16.73 4.41L16.73 4.41L16.73 4.41Q16.95 4.41 17.16 4.70L17.16 4.70L17.16 4.70Q17.37 4.98 17.37 5.21L17.37 5.21L17.37 5.21Q17.37 5.43 17.11 5.70L17.11 5.70L17.11 5.70Q16.84 5.98 16.72 5.98L16.72 5.98L16.72 5.98Q16.44 5.98 16.23 5.68L16.23 5.68L16.23 5.68Q16.03 5.39 16.03 5.18ZM18.98 3.95L18.98 3.95Q18.70 3.95 18.70 3.79L18.70 3.79L18.70 3.79Q18.70 3.64 19.39 3.43L19.39 3.43L19.39 3.43Q19.49 3.40 19.62 3.36L19.62 3.36L19.62 3.36Q19.75 3.32 19.78 3.31L19.78 3.31L19.78 3.31Q19.81 3.30 19.89 3.28L19.89 3.28L19.89 3.28Q19.96 3.25 19.97 3.24L19.97 3.24L19.97 3.24Q19.98 3.23 20.04 3.21L20.04 3.21L20.04 3.21Q20.10 3.18 20.13 3.16L20.13 3.16L20.13 3.16Q20.16 3.14 20.24 3.09L20.24 3.09L20.24 3.09Q20.33 3.04 20.41 2.98L20.41 2.98L20.41 2.98Q20.71 2.80 20.87 2.80L20.87 2.80L20.87 2.80Q21.07 2.80 21.07 3.07L21.07 3.07L21.07 3.07Q21.07 3.09 21.06 3.23L21.06 3.23L21.06 3.23Q21.04 3.36 21.02 3.62L21.02 3.62L21.02 3.62Q21 3.88 20.99 4.25L20.99 4.25L20.99 4.25Q20.97 4.62 20.96 5.24L20.96 5.24L20.96 5.24Q20.94 5.87 20.94 6.61L20.94 6.61L20.94 6.61Q20.94 7.08 20.92 8.04L20.92 8.04L20.92 8.04Q20.90 9.00 20.90 9.48L20.90 9.48L20.90 9.77L20.90 9.77Q20.90 10.36 20.96 10.36L20.96 10.36L20.96 10.36Q21.04 10.36 21.11 10.32L21.11 10.32L21.11 10.32Q21.17 10.28 21.26 10.18L21.26 10.18L21.26 10.18Q21.35 10.08 21.41 10.04L21.41 10.04L21.41 10.04Q23.37 8.47 23.37 8.26L23.37 8.26L23.37 8.26Q23.37 8.08 23.05 7.95L23.05 7.95L23.05 7.95Q22.74 7.83 22.74 7.71L22.74 7.71L22.74 7.71Q22.74 7.57 22.90 7.57L22.90 7.57L22.90 7.57Q22.93 7.57 23.02 7.58L23.02 7.58L23.02 7.58Q23.10 7.59 23.16 7.59L23.16 7.59L23.16 7.59Q23.77 7.57 24.42 7.55L24.42 7.55L24.42 7.55Q25.07 7.52 25.21 7.52L25.21 7.52L25.21 7.52Q25.58 7.52 25.58 7.64L25.58 7.64L25.58 7.64Q25.58 7.74 25.49 7.78L25.49 7.78L25.49 7.78Q25.41 7.83 25.27 7.85L25.27 7.85L25.27 7.85Q25.13 7.87 24.86 7.97L24.86 7.97L24.86 7.97Q24.60 8.06 24.32 8.25L24.32 8.25L24.32 8.25Q24.28 8.27 24.23 8.30L24.23 8.30L24.23 8.30Q24.19 8.33 24.14 8.37L24.14 8.37L24.14 8.37Q24.09 8.41 23.96 8.51L23.96 8.51L23.96 8.51Q23.83 8.61 23.66 8.74L23.66 8.74L23.66 8.74Q23.46 8.89 23.14 9.13L23.14 9.13L23.14 9.13Q22.48 9.63 22.37 9.73L22.37 9.73L22.37 9.73Q22.26 9.83 22.26 9.94L22.26 9.94L22.26 9.94Q22.26 10.05 22.41 10.26L22.41 10.26L22.41 10.26Q23.69 11.82 24.60 12.61L24.60 12.61L24.60 12.61Q24.98 12.95 25.36 13.05L25.36 13.05L25.36 13.05Q25.75 13.15 25.91 13.15L25.91 13.15L25.91 13.15Q26.08 13.15 26.08 13.27L26.08 13.27L26.08 13.27Q26.08 13.44 25.96 13.47L25.96 13.47L25.96 13.47Q25.84 13.51 25.51 13.51L25.51 13.51L25.51 13.51Q25.41 13.51 24.77 13.50L24.77 13.50L24.77 13.50Q24.12 13.50 24.05 13.50L24.05 13.50L24.05 13.50Q23.94 13.50 23.69 13.28L23.69 13.28L23.69 13.28Q23.44 13.06 23.08 12.66L23.08 12.66L23.08 12.66Q22.72 12.26 22.47 11.96L22.47 11.96L22.47 11.96Q22.22 11.66 21.85 11.21L21.85 11.21L21.85 11.21Q21.49 10.77 21.48 10.74L21.48 10.74L21.48 10.74Q21.42 10.65 21.32 10.65L21.32 10.65L21.32 10.65Q21.18 10.65 21.04 10.85L21.04 10.85L21.04 10.85Q20.89 11.05 20.89 11.30L20.89 11.30L20.89 11.30Q20.89 11.33 20.89 11.40L20.89 11.40L20.89 11.40Q20.90 11.48 20.90 11.54L20.90 11.54L20.90 11.54Q20.90 11.69 20.92 11.93L20.92 11.93L20.92 11.93Q20.94 12.60 21.01 12.68L21.01 12.68L21.01 12.68Q21.03 12.70 21.06 12.74L21.06 12.74L21.06 12.74Q21.11 12.81 21.15 12.87L21.15 12.87L21.15 12.87Q21.27 13.02 21.73 13.10L21.73 13.10L21.73 13.10Q22.20 13.19 22.20 13.31L22.20 13.31L22.20 13.31Q22.20 13.54 21.77 13.54L21.77 13.54L21.77 13.54Q21.74 13.54 21.21 13.50L21.21 13.50L21.21 13.50Q20.68 13.45 20.41 13.45L20.41 13.45L20.41 13.45Q20.23 13.45 19.97 13.48L19.97 13.48L19.97 13.48Q19.71 13.51 19.39 13.51L19.39 13.51L19.39 13.51Q19.05 13.51 19.05 13.34L19.05 13.34L19.05 13.34Q19.05 13.20 19.40 13.10L19.40 13.10L19.40 13.10Q19.73 12.98 19.81 12.74L19.81 12.74L19.81 12.74Q19.89 12.50 19.89 11.82L19.89 11.82L19.89 11.82Q19.89 11.66 19.90 11.45L19.90 11.45L19.90 11.45Q19.91 11.24 19.91 11.20L19.91 11.20L19.92 4.98L19.92 4.98Q19.92 3.93 19.26 3.93L19.26 3.93L19.26 3.93Q19.22 3.93 19.13 3.94L19.13 3.94L19.13 3.94Q19.04 3.95 18.98 3.95L18.98 3.95ZM26.61 10.60L26.61 10.60L26.61 10.60Q26.61 9.31 27.49 8.36L27.49 8.36L27.49 8.36Q28.36 7.41 29.92 7.41L29.92 7.41L29.92 7.41Q31.23 7.41 32.21 8.23L32.21 8.23L32.21 8.23Q33.18 9.06 33.18 10.51L33.18 10.51L33.18 10.51Q33.18 12.00 32.18 12.84L32.18 12.84L32.18 12.84Q31.18 13.69 29.82 13.69L29.82 13.69L29.82 13.69Q28.31 13.69 27.46 12.77L27.46 12.77L27.46 12.77Q26.61 11.86 26.61 10.60ZM27.72 10.12L27.72 10.12L27.72 10.12Q27.72 11.56 28.49 12.42L28.49 12.42L28.49 12.42Q29.26 13.27 30.24 13.27L30.24 13.27L30.24 13.27Q31.04 13.27 31.58 12.66L31.58 12.66L31.58 12.66Q32.13 12.05 32.13 10.93L32.13 10.93L32.13 10.93Q32.13 9.70 31.46 8.74L31.46 8.74L31.46 8.74Q30.79 7.78 29.58 7.78L29.58 7.78L29.58 7.78Q28.85 7.78 28.29 8.36L28.29 8.36L28.29 8.36Q27.72 8.93 27.72 10.12ZM34.27 10.71L34.27 10.71L34.27 10.71Q34.27 9.35 35.17 8.33L35.17 8.33L35.17 8.33Q36.08 7.31 37.67 7.31L37.67 7.31L37.67 7.31Q38.04 7.31 38.63 7.51L38.63 7.51L38.63 7.51Q39.23 7.71 39.27 7.71L39.27 7.71L39.27 7.71Q39.34 7.71 39.34 7.21L39.34 7.21L39.34 7.21Q39.34 6.15 39.35 5.82L39.35 5.82L39.35 5.82Q39.37 5.49 39.37 5.40L39.37 5.40L39.37 5.40Q39.37 4.96 39.35 4.75L39.35 4.75L39.35 4.75Q39.34 4.54 39.28 4.28L39.28 4.28L39.28 4.28Q39.21 4.03 39.05 3.93L39.05 3.93L39.05 3.93Q38.89 3.84 38.63 3.84L38.63 3.84L38.47 3.84L38.47 3.84Q38.26 3.84 38.22 3.82L38.22 3.82L38.22 3.82Q38.18 3.81 38.18 3.72L38.18 3.72L38.18 3.71L38.18 3.71Q38.18 3.61 38.32 3.56L38.32 3.56L38.32 3.56Q38.46 3.51 38.88 3.38L38.88 3.38L38.88 3.38Q39.31 3.25 39.76 3.04L39.76 3.04L39.76 3.04Q39.80 3.02 39.93 2.96L39.93 2.96L39.93 2.96Q40.05 2.90 40.14 2.86L40.14 2.86L40.14 2.86Q40.24 2.83 40.31 2.83L40.31 2.83L40.31 2.83Q40.47 2.83 40.47 3.11L40.47 3.11L40.47 3.11Q40.47 3.15 40.38 4.30L40.38 4.30L40.38 4.30Q40.29 5.45 40.29 6.15L40.29 6.15L40.29 6.15Q40.29 7.59 40.28 9.27L40.28 9.27L40.28 9.27Q40.26 10.95 40.26 11.26L40.26 11.26L40.26 11.26Q40.26 12.21 40.35 12.53L40.35 12.53L40.35 12.53Q40.45 12.85 40.75 12.95L40.75 12.95L40.75 12.95Q40.80 12.96 40.99 13.00L40.99 13.00L40.99 13.00Q41.19 13.03 41.27 13.08L41.27 13.08L41.27 13.08Q41.36 13.13 41.36 13.24L41.36 13.24L41.36 13.24Q41.36 13.41 40.28 13.50L40.28 13.50L40.28 13.50Q40.05 13.51 39.76 13.57L39.76 13.57L39.76 13.57Q39.47 13.64 39.40 13.64L39.40 13.64L39.40 13.64Q39.24 13.64 39.24 13.48L39.24 13.48L39.24 13.48Q39.24 13.44 39.22 13.27L39.22 13.27L39.22 13.27Q39.20 13.10 39.20 12.96L39.20 12.96L39.20 12.96Q39.20 12.73 39.07 12.73L39.07 12.73L39.07 12.73Q39.03 12.73 38.87 12.87L38.87 12.87L38.87 12.87Q38.71 13.01 38.50 13.18L38.50 13.18L38.50 13.18Q38.29 13.36 37.89 13.50L37.89 13.50L37.89 13.50Q37.49 13.64 37.03 13.64L37.03 13.64L37.03 13.64Q35.73 13.64 35 12.77L35 12.77L35 12.77Q34.27 11.91 34.27 10.71ZM35.28 10.05L35.28 10.05L35.28 10.05Q35.28 11.12 35.93 12.01L35.93 12.01L35.93 12.01Q36.58 12.91 37.60 12.91L37.60 12.91L37.60 12.91Q38.23 12.91 38.75 12.59L38.75 12.59L38.75 12.59Q39.27 12.26 39.27 11.80L39.27 11.80L39.28 9.41L39.28 9.41Q39.28 8.55 38.89 8.33L38.89 8.33L38.89 8.33Q37.86 7.71 37.23 7.71L37.23 7.71L37.23 7.71Q36.32 7.71 35.80 8.38L35.80 8.38L35.80 8.38Q35.28 9.04 35.28 10.05ZM42.04 10.72L42.04 10.72L42.04 10.72Q42.04 9.32 42.83 8.36L42.83 8.36L42.83 8.36Q43.62 7.39 44.88 7.39L44.88 7.39L44.88 7.39Q45.47 7.39 45.95 7.60L45.95 7.60L45.95 7.60Q46.44 7.81 46.70 8.11L46.70 8.11L46.70 8.11Q46.97 8.41 47.15 8.75L47.15 8.75L47.15 8.75Q47.33 9.09 47.40 9.30L47.40 9.30L47.40 9.30Q47.46 9.52 47.46 9.62L47.46 9.62L47.46 9.62Q47.46 9.87 46.89 9.87L46.89 9.87L43.71 9.87L43.29 9.87L43.29 9.87Q43.18 9.87 43.15 9.89L43.15 9.89L43.15 9.89Q43.13 9.91 43.13 10.02L43.13 10.02L43.13 10.02Q43.13 11.34 43.84 12.10L43.84 12.10L43.84 12.10Q44.55 12.85 45.50 12.85L45.50 12.85L45.50 12.85Q46.09 12.85 46.70 12.54L46.70 12.54L46.70 12.54Q47.31 12.22 47.33 12.22L47.33 12.22L47.33 12.22Q47.47 12.22 47.47 12.35L47.47 12.35L47.47 12.35Q47.47 12.40 47.38 12.55L47.38 12.55L47.38 12.55Q47.28 12.70 47.07 12.89L47.07 12.89L47.07 12.89Q46.86 13.09 46.58 13.27L46.58 13.27L46.58 13.27Q46.30 13.45 45.88 13.58L45.88 13.58L45.88 13.58Q45.46 13.71 45.00 13.71L45.00 13.71L45.00 13.71Q43.76 13.71 42.90 12.95L42.90 12.95L42.90 12.95Q42.04 12.19 42.04 10.72ZM43.22 9.34L43.22 9.34L43.22 9.34Q43.22 9.53 43.40 9.53L43.40 9.53L43.40 9.53Q43.78 9.53 44.79 9.49L44.79 9.49L44.79 9.49Q45.79 9.45 45.86 9.45L45.86 9.45L45.86 9.45Q46.06 9.45 46.11 9.41L46.11 9.41L46.11 9.41Q46.16 9.38 46.16 9.28L46.16 9.28L46.16 9.28Q46.16 8.86 45.77 8.30L45.77 8.30L45.77 8.30Q45.37 7.74 44.65 7.74L44.65 7.74L44.65 7.74Q43.97 7.74 43.60 8.29L43.60 8.29L43.60 8.29Q43.22 8.85 43.22 9.34Z"></path></g><!----><!----></svg>